<svg xmlns="http://www.w3.org/2000/svg" id="uuid-c6d7bb0b-ce20-4c4f-b0df-e25e79a561a7" viewBox="0 0 500 500" width="500" height="500"><path d="M64.43,140.29h67.44v13.2h-48.96v180h48.96v13.2h-67.44v-206.4Z" style="fill:#4d4b54;"></path><path d="M352.67,333.5h48.96v-180h-48.96v-13.2h67.44v206.4h-67.44v-13.2Z" style="fill:#4d4b54;"></path><path d="M237.77,169.8c4.32-20.16,8.64-39.6,16.92-54.36,9.36-16.92,24.12-33.48,55.08-33.48,21.96,0,34.2,10.8,34.2,26.28,0,10.44-6.84,15.84-14.4,15.84-9.72,0-13.32-6.48-14.4-14.04-1.44-9-2.16-17.64-10.8-17.64-18.36,0-27.36,21.24-32.76,51.84l-4.32,25.56h34.2l-2.16,14.76h-33.84l-20.52,122.76c-5.04,30.96-21.6,111.6-70.92,111.6-23.04,0-32.04-13.32-32.04-25.92,0-10.08,5.04-17.64,14.4-17.64,21.6,0,9.72,32.04,23.4,32.04,19.08,0,28.44-59.04,32.4-82.8l23.4-140.04h-30.24l1.44-14.76h30.96Z" style="fill:#bf4e6a;"></path></svg>