<svg xmlns="http://www.w3.org/2000/svg" id="uuid-bbbd5b2f-b286-4c12-becd-414fca1ebde9" viewBox="0 0 500 500" width="500" height="500"><path d="M210.8,451.33c-14.44,6.96-31.78,5.55-41.96-7.84L20.67,248.75c-5.62-7.38-6.35-18.76-.56-25.73l75.41-90.8c3.17-3.82,7.58-5.34,12.06-7.47l160.97-76.62c14.33-6.82,30.68-3.53,42.04,7.07l105.12,142.11c2.69,5.58,5.13,10.27,8.53,15.28l55.82,82.24c5.37,7.91,6.05,23.69-4.06,28.56l-265.21,127.93ZM240.21,310.96l161.6-76.96c11.16-5.32,21.54-22.67,13.21-34.01l-105.49-143.66c-11.5-10.31-27.05-13.14-41.14-6.4l-166.89,79.87c-13.23,6.33-14.59,25.94-6.48,36.81l97.77,131.09c11.25,15.09,29.74,21.66,47.42,13.24ZM185.57,452.15c6.57,2.92,14.18,2.5,21.22-.89l267.88-128.95c8.75-4.21,9.43-18.42,4.56-25.6l-59.66-88.07c-1.3,13.05-7.4,22.31-18.52,27.6l-157.65,75.1c-9.63,4.59-18.53,5.83-29.47,4.16-6.26-3.25-13.52-5.43-18.2-11.67l-100.41-133.93c-6.12-8.16-7.99-15.97-6.35-27.06L21.19,224.36c-5.01,6.03-4.38,16.57.54,23.04l148.59,195.3c3.88,5.09,9.36,7.96,15.25,9.45Z" style="fill:#676565;"></path><path d="M240.21,310.96c-17.68,8.42-36.17,1.85-47.42-13.24l-97.77-131.09c-8.11-10.88-6.75-30.48,6.48-36.81l166.89-79.87c14.09-6.74,29.64-3.91,41.14,6.4l105.49,143.66c8.33,11.34-2.05,28.69-13.21,34.01l-161.6,76.96Z" style="fill:#e1dfd2;"></path><path d="M185.57,452.15c1.96-4.82,3.23-9.57,4.66-15.14l27.96-108.44c1.32-5.12-3.24-8.92-4.26-13.08,10.94,1.67,19.84.42,29.47-4.16l157.65-75.1c11.12-5.3,17.22-14.55,18.52-27.6l59.66,88.07c4.87,7.19,4.2,21.39-4.56,25.6l-267.88,128.95c-7.05,3.39-14.65,3.81-21.22.89Z" style="fill:#bebbac;"></path><path d="M213.93,315.5c1.02,4.16,5.58,7.95,4.26,13.08l-27.96,108.44c-1.44,5.57-2.71,10.31-4.66,15.14-5.89-1.49-11.37-4.36-15.25-9.45L21.73,247.4c-4.92-6.47-5.55-17.01-.54-23.04l67.77-81.52c-1.64,11.09.23,18.9,6.35,27.06l100.41,133.93c4.68,6.24,11.94,8.42,18.2,11.67Z" style="fill:#dddac8;"></path><polygon points="235.73 238.11 242.68 249.09 216.89 260.65 148.18 159.94 175.53 148.43 181.86 158.31 167.41 164.38 223.16 243.75 235.73 238.11" style="fill:#4d4b54;"></polygon><polygon points="322.28 198.8 336.63 192.08 282.52 114.13 268.93 120.26 263.07 111.47 289.19 98.94 356.36 194.97 329.15 207.94 322.28 198.8" style="fill:#4d4b54;"></polygon><path d="M245.3,160.41c9.03,15.98,17.59,31.55,25.28,48.2,7.43,16.09,16.44,39,4.36,54.53-5.6,7.2-13.93,10.74-22.32,9.15-3.42-.65-5.8-2.78-5.93-5.92-.12-2.78,1.59-5.75,4.93-6.61,2.7-.69,6.2-.29,8.92.64,5.17,1.76,9.75-.71,11.18-6.18,1.14-4.4.26-9.46-1.57-13.97-4.76-11.73-10.73-22.33-17-33.4l-21.8-38.5c-.25-.44-6.36-11.42-6.36-11.42-2.87-6.21-16.16-25.52-5.57-44.8,5.23-9.53,15.89-15.13,26.35-12.59,3.15.76,5.82,3.09,6.27,5.63.57,3.22-1.12,6.43-4.3,7.81-8,3.48-12.19-4.65-17.66-2.08-7.12,3.35-3.91,13.49-1.03,19.02l10.48,20.15c2.29,4.41,1.97,3.58,5.79,10.33Z" style="fill:#bf4e6a;"></path><polygon points="219.23 179.81 213.82 171.75 264.09 148.47 269.11 155.96 219.23 179.81" style="fill:#bf4e6a;"></polygon></svg>