<?xml version="1.0" encoding="UTF-8"?><svg id="uuid-a0e7239a-a159-4ac7-ad72-8a6345d73e7f" xmlns="http://www.w3.org/2000/svg" viewBox="0 0 1800 500"><path d="M257.61,451.33c-14.44,6.96-31.78,5.55-41.96-7.84L67.48,248.75c-5.62-7.38-6.35-18.76-.56-25.73l75.41-90.8c3.17-3.82,7.58-5.34,12.06-7.47l160.97-76.62c14.33-6.82,30.68-3.53,42.04,7.07l105.12,142.11c2.69,5.58,5.13,10.27,8.53,15.28l55.82,82.24c5.37,7.91,6.05,23.69-4.06,28.56l-265.21,127.93ZM287.03,310.96l161.6-76.96c11.16-5.32,21.54-22.67,13.21-34.01l-105.49-143.66c-11.5-10.31-27.05-13.14-41.14-6.4l-166.89,79.87c-13.23,6.33-14.59,25.94-6.48,36.81l97.77,131.09c11.25,15.09,29.74,21.66,47.42,13.24ZM232.38,452.15c6.57,2.92,14.18,2.5,21.22-.89l267.88-128.95c8.75-4.21,9.43-18.42,4.56-25.6l-59.66-88.07c-1.3,13.05-7.4,22.31-18.52,27.6l-157.65,75.1c-9.63,4.59-18.53,5.83-29.47,4.16-6.26-3.25-13.52-5.43-18.2-11.67l-100.41-133.93c-6.12-8.16-7.99-15.97-6.35-27.06l-67.77,81.52c-5.01,6.03-4.38,16.57.54,23.04l148.59,195.3c3.88,5.09,9.36,7.96,15.25,9.45Z" style="fill:#676565;"/><path d="M287.03,310.96c-17.68,8.42-36.17,1.85-47.42-13.24l-97.77-131.09c-8.11-10.88-6.75-30.48,6.48-36.81l166.89-79.87c14.09-6.74,29.64-3.91,41.14,6.4l105.49,143.66c8.33,11.34-2.05,28.69-13.21,34.01l-161.6,76.96Z" style="fill:#e1dfd2;"/><path d="M232.38,452.15c1.96-4.82,3.23-9.57,4.66-15.14l27.96-108.44c1.32-5.12-3.24-8.92-4.26-13.08,10.94,1.67,19.84.42,29.47-4.16l157.65-75.1c11.12-5.3,17.22-14.55,18.52-27.6l59.66,88.07c4.87,7.19,4.2,21.39-4.56,25.6l-267.88,128.95c-7.05,3.39-14.65,3.81-21.22.89Z" style="fill:#bebbac;"/><path d="M260.74,315.5c1.02,4.16,5.58,7.95,4.26,13.08l-27.96,108.44c-1.44,5.57-2.71,10.31-4.66,15.14-5.89-1.49-11.37-4.36-15.25-9.45L68.54,247.4c-4.92-6.47-5.55-17.01-.54-23.04l67.77-81.52c-1.64,11.09.23,18.9,6.35,27.06l100.41,133.93c4.68,6.24,11.94,8.42,18.2,11.67Z" style="fill:#dddac8;"/><polygon points="282.54 238.11 289.49 249.09 263.7 260.65 194.99 159.94 222.35 148.43 228.68 158.31 214.22 164.38 269.97 243.75 282.54 238.11" style="fill:#4d4b54;"/><polygon points="369.09 198.8 383.44 192.08 329.33 114.13 315.75 120.26 309.88 111.47 336 98.94 403.17 194.97 375.96 207.94 369.09 198.8" style="fill:#4d4b54;"/><path d="M292.11,160.41c9.03,15.98,17.59,31.55,25.28,48.2,7.43,16.09,16.44,39,4.36,54.53-5.6,7.2-13.93,10.74-22.32,9.15-3.42-.65-5.8-2.78-5.93-5.92-.12-2.78,1.59-5.75,4.93-6.61,2.7-.69,6.2-.29,8.92.64,5.17,1.76,9.75-.71,11.18-6.18,1.14-4.4.26-9.46-1.57-13.97-4.76-11.73-10.73-22.33-17-33.4l-21.8-38.5c-.25-.44-6.36-11.42-6.36-11.42-2.87-6.21-16.16-25.52-5.57-44.8,5.23-9.53,15.89-15.13,26.35-12.59,3.15.76,5.82,3.09,6.27,5.63.57,3.22-1.12,6.43-4.3,7.81-8,3.48-12.19-4.65-17.66-2.08-7.12,3.35-3.91,13.49-1.03,19.02l10.48,20.15c2.29,4.41,1.97,3.58,5.79,10.33Z" style="fill:#bf4e6a;"/><polygon points="266.05 179.81 260.64 171.75 310.91 148.47 315.92 155.96 266.05 179.81" style="fill:#bf4e6a;"/><path d="M703.28,220.77v144.67h-27.95v-144.67h-31.82v-24.08h31.99v-20.92c0-38.32,24.43-61.35,63.11-61.35,15.12,0,24.79,4.22,27.77,5.45l-3.34,22.68c-4.75-2.11-13.54-4.22-23.2-4.22-21.45,0-36.91,10.55-36.91,39.38v18.98h52.38v24.08h-52.03Z" style="fill:#bf4e6a;"/><path d="M863.6,193.17c51.33,0,89.65,38.5,89.65,87.89s-38.32,87.89-89.65,87.89-89.65-38.5-89.65-87.89,38.32-87.89,89.65-87.89ZM863.6,342.94c35.51,0,61.7-27.07,61.7-61.88s-26.19-61.88-61.7-61.88-61.7,27.07-61.7,61.88,26.19,61.88,61.7,61.88Z" style="fill:#bf4e6a;"/><path d="M1154.16,262.78v102.66h-27.77v-95.8c0-32.87-17.23-50.1-47.81-50.1-28.83,0-52.21,19.86-52.21,50.62v95.27h-27.95v-168.75h28.12v25.31c9.49-15.64,29.53-28.83,56.43-28.83,44.47,0,71.19,26.19,71.19,69.61Z" style="fill:#bf4e6a;"/><path d="M1246.27,220.77v91.23c0,22.15,11.95,31.82,29.18,31.82,9.14,0,20.74-1.76,28.83-4.75l3.69,24.08c-7.21,3.16-21.8,5.8-35.51,5.8-32.52,0-54.14-17.93-54.14-52.38v-95.8h-31.11v-24.08h31.29v-54.14h27.6v54.14h53.96v24.08h-53.79Z" style="fill:#bf4e6a;"/><path d="M1339.26,140.09c0-10.2,7.03-17.23,17.23-17.23s17.58,7.03,17.58,17.23-7.38,17.4-17.58,17.4-17.23-7.21-17.23-17.4ZM1342.6,196.69h27.95v168.75h-27.95v-168.75Z" style="fill:#4d4b54;"/><path d="M1496.76,270.34c33.57,6.68,51.33,21.8,51.33,48.16,0,32.87-26.19,50.45-67.15,50.45-23.91,0-47.46-4.75-63.28-12.66l3.87-24.96c15.47,7.91,37.09,12.66,57.48,12.66,27.07,0,41.66-8.44,41.66-24.08s-13.01-21.45-36.74-26.02l-21.97-4.39c-27.95-5.45-45.88-20.21-45.88-46.23,0-30.06,26.54-50.1,68.55-50.1,20.39,0,40.96,3.87,54.14,9.32l-3.52,24.43c-13.71-5.45-32.34-8.96-48.87-8.96-27.42,0-42.54,9.14-42.54,24.61,0,14.59,11.6,19.69,35.33,24.26l17.58,3.52Z" style="fill:#4d4b54;"/><path d="M1629.65,220.77v91.23c0,22.15,11.95,31.82,29.18,31.82,9.14,0,20.74-1.76,28.83-4.75l3.69,24.08c-7.21,3.16-21.8,5.8-35.51,5.8-32.52,0-54.14-17.93-54.14-52.38v-95.8h-31.11v-24.08h31.29v-54.14h27.6v54.14h53.96v24.08h-53.79Z" style="fill:#4d4b54;"/></svg>